<?xml version="1.0" encoding="iso-8859-1"?>
<!-- Generator: Adobe Illustrator 19.0.0, SVG Export Plug-In . SVG Version: 6.00 Build 0)  -->
<svg xmlns="http://www.w3.org/2000/svg" xmlns:xlink="http://www.w3.org/1999/xlink" version="1.1" id="Layer_1" x="0px" y="0px" viewBox="0 0 462.523 462.523" style="enable-background:new 0 0 462.523 462.523;" xml:space="preserve" width="100" height="100">
<g>
	<g>
		<g>
			<path d="M290.62,125.371c-8.578,0-15.867,5.439-18.662,13.049c-5.398-17.314-21.554-29.882-40.645-29.882     s-35.246,12.568-40.645,29.882c-2.795-7.609-10.083-13.049-18.662-13.049c-17.379,0-41.054,30.438-26.949,58.433     c7.556-17.631,15.96-18.638,26.949-18.638c7.197,0,13.483-3.834,16.977-9.559c2.249,21.394,20.34,38.068,42.33,38.068     s40.081-16.674,42.33-38.068c3.494,5.725,9.78,9.559,16.977,9.559c10.989,0,19.394,1.007,26.95,18.638     C331.674,155.81,307.999,125.371,290.62,125.371z" fill="#982dd6"/>
			<path d="M400.315,223.143c-0.147-0.13-11.701-10.533-19.121-24.925l3.501-3.7c6.87-7.261,6.553-18.716-0.708-25.585     c-2.382-2.253-5.218-3.718-8.193-4.433v-19.967C375.794,64.837,310.957,0,231.26,0C151.565,0,86.728,64.837,86.728,144.533     v19.966c-2.975,0.715-5.811,2.18-8.193,4.434c-7.261,6.87-7.578,18.325-0.708,25.585l3.493,3.692     c-7.414,14.344-18.97,24.805-19.12,24.94c-3.087,2.754-3.361,7.49-0.61,10.582c2.754,3.095,7.495,3.369,10.589,0.617     c0.636-0.566,11.443-10.301,19.952-24.713l29.849,31.548c3.418,3.613,8.173,5.66,13.147,5.66h50.659L159.229,393.35     c-1.067,6.159,3.701,11.783,9.906,11.783c2.86,0,6.521,0,10.788,0l-1.997,10.178l-76.261-14.963     c-11.771-2.31-23.184,5.36-25.494,17.13c-2.31,11.771,5.36,23.184,17.13,25.494l97.574,19.145     c5.546,1.089,11.427-0.014,16.295-3.285c4.781-3.213,8.09-8.193,9.199-13.846l7.819-39.853c4.855,0,9.77,0,14.655,0l7.819,39.853     c1.109,5.652,4.418,10.633,9.199,13.846c4.882,3.28,10.764,4.371,16.295,3.285l97.574-19.145     c11.77-2.31,19.439-13.723,17.131-25.494c-2.31-11.77-13.714-19.438-25.494-17.13l-76.262,14.963l-1.997-10.178     c3.863,0,7.363,0,10.383,0c6.236,0,10.973-6.99,9.906-13.146l-26.513-145.144h50.512c4.974,0,9.729-2.047,13.147-5.66     l29.849-31.548c8.509,14.411,19.317,24.147,19.953,24.713c3.093,2.753,7.834,2.478,10.589-0.618     C403.686,230.637,403.41,225.896,400.315,223.143z M360.793,167.542c-0.841,0.623-1.648,1.313-2.392,2.1l-38.797,41.006     c-86.22,0-90.119,0-176.687,0l-38.797-41.006c-0.744-0.787-1.551-1.476-2.392-2.1v-23.009C101.728,73.108,159.836,15,231.26,15     c71.425,0,129.533,58.108,129.533,129.533V167.542z" fill="#982dd6"/>
		</g>
	</g>
</g>
<g>
</g>
<g>
</g>
<g>
</g>
<g>
</g>
<g>
</g>
<g>
</g>
<g>
</g>
<g>
</g>
<g>
</g>
<g>
</g>
<g>
</g>
<g>
</g>
<g>
</g>
<g>
</g>
<g>
</g>
</svg>
