<?xml version="1.0" encoding="iso-8859-1"?>
<!-- Generator: Adobe Illustrator 18.0.0, SVG Export Plug-In . SVG Version: 6.00 Build 0)  -->
<!DOCTYPE svg PUBLIC "-//W3C//DTD SVG 1.1//EN" "http://www.w3.org/Graphics/SVG/1.1/DTD/svg11.dtd">
<svg xmlns="http://www.w3.org/2000/svg" xmlns:xlink="http://www.w3.org/1999/xlink" version="1.1" id="Capa_1" x="0px" y="0px" viewBox="0 0 301.752 301.752" style="enable-background:new 0 0 301.752 301.752;" xml:space="preserve" width="100" height="100">
<g>
	<path d="M226.876,174.838c3.326-14.41,5.012-29.589,5.012-45.268c0-33.905-8.002-65.899-22.531-90.088   C194.064,14.021,173.295,0,150.876,0c-22.419,0-43.188,14.021-58.48,39.482C77.866,63.671,69.864,95.665,69.864,129.57   c0,15.702,1.689,30.898,5.023,45.323l-1.103,1.115c-4.313,4.362-4.272,11.393,0.089,15.706c2.165,2.141,4.986,3.208,7.809,3.208   c2.862,0,5.726-1.101,7.897-3.297l27.979-28.298v12.186l-15.118,61.638c-0.705,2.875-0.051,5.915,1.777,8.244   c1.546,1.973,3.79,3.239,6.238,3.585l-17.941,17.342c-5.513,5.329-5.661,14.117-0.333,19.63c2.724,2.817,6.351,4.233,9.983,4.233   c3.473,0,6.951-1.296,9.646-3.9l29.312-28.333c2.437-2.355,3.906-5.513,4.177-8.866h11.163v38.784   c0,7.667,6.215,13.882,13.882,13.882c7.667,0,13.882-6.215,13.882-13.882v-38.784h5.726c2.961,0,5.758-1.36,7.584-3.69   c1.828-2.329,2.482-5.369,1.777-8.244l-15.119-61.642h-0.001v-12.25l28.046,28.366c2.173,2.197,5.034,3.297,7.898,3.297   c2.821,0,5.644-1.068,7.809-3.208c4.361-4.313,4.401-11.344,0.089-15.706L226.876,174.838z M85.806,129.57   c0-31.056,7.193-60.135,20.255-81.88c12.298-20.474,28.214-31.749,44.816-31.749c16.602,0,32.518,11.275,44.815,31.749   c13.061,21.745,20.255,50.824,20.255,81.88c0,10.842-0.883,21.398-2.603,31.58l-37.422-37.85c-1.73-1.75-3.972-2.48-6.157-3.148   c-3.387-1.035-34.419-1.042-37.811,0.016c-2.149,0.67-4.352,1.409-6.056,3.133L88.417,161.21   C86.691,151.012,85.806,140.435,85.806,129.57z" fill="#26b99a"/>
	<path d="M128.69,98.087c4.762,7.21,12.935,11.967,22.22,11.967c9.285,0,17.458-4.757,22.22-11.967   c0.472,0.596,1.104,1.076,1.874,1.347c0.457,0.161,0.923,0.237,1.381,0.237c1.159,0,2.261-0.497,3.044-1.34   c0.206,0.688,0.484,1.367,0.839,2.025c2.568,4.765,14.037,3.671,21.348,16.575c0.483,0.854,1.418,1.349,2.396,1.268   c0.978-0.081,1.819-0.724,2.155-1.646c3.329-9.14-2.747-20.968-7.012-26.376c-3.668-4.653-9.315-7.166-14.532-4.355   c-0.186,0.1-0.357,0.215-0.534,0.323l0.043-0.122c0.763-2.17-0.378-4.547-2.548-5.31c-1.479-0.521-3.039-0.143-4.134,0.827   c-0.976-13.8-12.483-24.706-26.539-24.706c-14.058,0-25.565,10.907-26.54,24.707c-1.095-0.97-2.657-1.349-4.134-0.828   c-2.17,0.763-3.311,3.14-2.548,5.31l0.043,0.122c-0.177-0.109-0.348-0.224-0.533-0.323c-5.217-2.811-10.864-0.299-14.533,4.355   c-4.264,5.408-10.341,17.236-7.012,26.376c0.336,0.922,1.177,1.564,2.154,1.646c0.979,0.081,1.913-0.414,2.396-1.268   c7.311-12.904,18.78-11.81,21.349-16.575c0.354-0.658,0.632-1.336,0.839-2.025c0.783,0.844,1.885,1.34,3.044,1.34   c0.458,0,0.925-0.076,1.381-0.237C127.586,99.163,128.218,98.683,128.69,98.087z" fill="#26b99a"/>
</g>
<g>
</g>
<g>
</g>
<g>
</g>
<g>
</g>
<g>
</g>
<g>
</g>
<g>
</g>
<g>
</g>
<g>
</g>
<g>
</g>
<g>
</g>
<g>
</g>
<g>
</g>
<g>
</g>
<g>
</g>
</svg>
